<?xml version="1.0" encoding="utf-8"?>

<!DOCTYPE svg PUBLIC "-//W3C//DTD SVG 1.1//EN" "http://www.w3.org/Graphics/SVG/1.1/DTD/svg11.dtd">
<!-- Uploaded to: SVG Repo, www.svgrepo.com, Generator: SVG Repo Mixer Tools -->
<svg version="1.1" id="_x32_" xmlns="http://www.w3.org/2000/svg" xmlns:xlink="http://www.w3.org/1999/xlink" 
	 viewBox="0 0 512 512"  xml:space="preserve">
<style type="text/css">
	.st0{fill:#1d2b64;}
</style>
<g>
	<rect x="249.943" y="28.269" class="st0" width="9.755" height="95.565"/>
	<path class="st0" d="M310.46,42.905c-20.517-12.864-35.859-13.853-43.932-13.031v51.029c24.99-6.454,38.07,6.584,55.828,2.969
		c19.224-3.897,33.869-29.26,32.952-33.164C354.395,46.803,341.581,62.414,310.46,42.905z"/>
	<polygon class="st0" points="328.356,160.499 311.396,160.499 311.396,135.753 285.426,135.753 285.426,160.499 268.474,160.499 
		268.474,135.753 242.498,135.753 242.498,160.499 225.547,160.499 225.547,135.753 199.576,135.753 199.576,160.499 
		182.621,160.499 182.621,135.753 156.65,135.753 156.65,191.761 170.53,191.761 182.621,191.761 199.576,191.761 225.547,191.761 
		242.498,191.761 268.474,191.761 285.426,191.761 311.396,191.761 328.356,191.761 340.446,191.761 354.323,191.761 
		354.323,135.753 328.356,135.753 	"/>
	<path class="st0" d="M170.53,483.731h56.837V426.34c0-17.203,13.941-31.14,31.136-31.14c17.194,0,31.136,13.937,31.136,31.14
		v57.392h50.808v-277.66H170.53V483.731z M276.611,261.066h20.121v34.877h-20.121V261.066z M209.544,261.066h20.118v34.877h-20.118
		V261.066z"/>
	<path class="st0" d="M0,483.731h154.746V302.199H0V483.731z M67.315,341.552h20.118v34.877H67.315V341.552z"/>
	<polygon class="st0" points="128.78,257.085 111.824,257.085 111.824,232.339 85.853,232.339 85.853,257.085 68.898,257.085 
		68.898,232.339 42.926,232.339 42.926,257.085 25.972,257.085 25.972,232.339 0,232.339 0,257.085 0,288.339 25.972,288.339 
		42.926,288.339 68.898,288.339 85.853,288.339 111.824,288.339 128.78,288.339 140.871,288.339 154.746,288.339 154.746,232.339 
		128.78,232.339 	"/>
	<path class="st0" d="M357.254,483.731H512V302.199H357.254V483.731z M424.564,341.552h20.122v34.877h-20.122V341.552z"/>
	<polygon class="st0" points="486.029,232.339 486.029,257.085 469.074,257.085 469.074,232.339 443.103,232.339 443.103,257.085 
		426.148,257.085 426.148,232.339 400.18,232.339 400.18,257.085 383.22,257.085 383.22,232.339 357.254,232.339 357.254,257.085 
		357.254,288.339 383.22,288.339 400.18,288.339 426.148,288.339 443.103,288.339 469.074,288.339 486.029,288.339 498.124,288.339 
		512,288.339 512,232.339 	"/>
</g>
</svg>