<?xml version="1.0" encoding="utf-8"?><!-- Uploaded to: SVG Repo, www.svgrepo.com, Generator: SVG Repo Mixer Tools -->
<svg fill="#1d2b64" width="800px" height="800px" viewBox="0 0 24 24" id="a11298b2-e15e-46f5-bfd2-69e168954b14" data-name="Livello 1" xmlns="http://www.w3.org/2000/svg"><title>prime</title><path d="M8,11.47A18.74,18.74,0,0,0,10.69,8.9a18.74,18.74,0,0,0,1.76-2.42A6.42,6.42,0,0,0,13,5.41l1.74-4.57a4.45,4.45,0,0,1,2.83,2A4,4,0,0,1,18,4.77a2.67,2.67,0,0,1-.09.55L16.72,9.05h5.22a2,2,0,0,1,2,1.85,19.32,19.32,0,0,1-.32,5.44,33.83,33.83,0,0,1-1.23,4.34,3.78,3.78,0,0,1-3.58,2.49,25.54,25.54,0,0,1-6.28-.66A45.85,45.85,0,0,1,8,21.26V11.47Z"/><path d="M5,9H1a1,1,0,0,0-1,1V22a1,1,0,0,0,1,1H5a1,1,0,0,0,1-1V10A1,1,0,0,0,5,9ZM3,21a1,1,0,1,1,1-1A1,1,0,0,1,3,21Z"/></svg>